<?xml version="1.0" encoding="utf-8"?>
<!-- Generator: Adobe Illustrator 16.0.0, SVG Export Plug-In . SVG Version: 6.00 Build 0)  -->
<!DOCTYPE svg PUBLIC "-//W3C//DTD SVG 1.1//EN" "http://www.w3.org/Graphics/SVG/1.1/DTD/svg11.dtd">
<svg version="1.1" id="Layer_1" xmlns="http://www.w3.org/2000/svg" xmlns:xlink="http://www.w3.org/1999/xlink" x="0px" y="0px"
	 width="1400px" height="980px" viewBox="0 0 1400 980" enable-background="new 0 0 1400 980" xml:space="preserve">
<g>
	<g>
		<path fill="#414154" d="M743,906.61c0,4.081-3.309,7.39-7.391,7.39h-34.219c-4.082,0-7.391-3.309-7.391-7.39V712.39
			c0-4.081,3.309-7.39,7.391-7.39h34.219c4.082,0,7.391,3.309,7.391,7.39V906.61z"/>
	</g>
	<g>
		<path fill="#414154" d="M1052,906.61c0,4.081-3.309,7.39-7.39,7.39h-34.221c-4.081,0-7.39-3.309-7.39-7.39V783.39
			c0-4.081,3.309-7.39,7.39-7.39h34.221c4.081,0,7.39,3.309,7.39,7.39V906.61z"/>
	</g>
	<g>
		<rect x="726" y="834" fill="#414154" width="293" height="32"/>
	</g>
	<g>
		<circle fill="#89E8BF" cx="772.822" cy="771.766" r="29.992"/>
	</g>
	<g>
		<polygon fill="#89E8BF" points="1003,834 796.961,834 783.672,778.744 1003,787.128 		"/>
	</g>
	<g>
		<path fill="#414154" d="M808,829c0,14.359-11.641,26-26,26h-38c-14.359,0-26-11.641-26-26l0,0c0-14.359,11.641-26,26-26h38
			C796.359,803,808,814.641,808,829L808,829z"/>
	</g>
</g>
<g>
	<g>
		<path fill="#FFFFFF" d="M357,110.861C357,124.192,346.192,135,332.861,135h-0.722C318.808,135,308,124.192,308,110.861V67.139
			C308,53.808,318.808,43,332.139,43h0.722C346.192,43,357,53.808,357,67.139V110.861z"/>
	</g>
	<g>
		<path fill="#F95050" d="M331.794,43.194L331.794,43.194c13.332,0,24.206,10.807,24.206,24.139v43.89
			c0,13.332-10.841,24.139-24.172,24.139l0,0"/>
	</g>
	<g>
		<path fill="#414154" d="M365,203.992c0,4.192-4.83,8.008-10.35,8.008h-45.313c-5.518,0-10.337-3.816-10.337-8.008V77.121
			c0-4.194,4.819-8.121,10.337-8.121h45.313c5.521,0,10.35,3.927,10.35,8.121V203.992z"/>
	</g>
	<g>
		<path fill="#56CEEF" d="M394,254.028c0,6.06-4.913,10.972-10.972,10.972H85.972C79.913,265,75,260.087,75,254.028V90.972
			C75,84.913,79.913,80,85.972,80h297.056C389.087,80,394,84.913,394,90.972V254.028z"/>
	</g>
	<g>
		<path fill="#56CEEF" d="M452,168.28c0-6.035-3.021-14.704-6.973-19.264l-52.088-60.224c-3.952-4.561-7.368-3.36-7.654,2.668
			l-7.708,162.499C377.29,259.988,382.02,265,388.054,265h53.399c6.035,0,10.547-5.1,10.547-11.134V168.28z"/>
	</g>
	<g>
		<polygon fill="#FFFFFF" points="217,137 198,137 198,118 165,118 165,137 146,137 146,170 165,170 165,190 198,190 198,170 
			217,170 		"/>
	</g>
	<g>
		<rect x="288" y="96" fill="#FFFFFF" width="37" height="74"/>
	</g>
	<g>
		<polygon fill="#FFFFFF" points="417.313,170 341,170 341,96 377.812,96 417.391,148.267 		"/>
	</g>
	<g>
		<circle fill="#FFFFFF" cx="149.585" cy="264.838" r="28.529"/>
		<path fill="#414154" d="M149.585,303.242c-21.176,0-38.403-17.228-38.403-38.404c0-21.175,17.228-38.404,38.403-38.404
			s38.404,17.229,38.404,38.404C187.989,286.014,170.761,303.242,149.585,303.242z M149.585,246.185
			c-10.285,0-18.653,8.369-18.653,18.653c0,10.285,8.368,18.653,18.653,18.653c10.286,0,18.653-8.369,18.653-18.653
			C168.238,254.554,159.871,246.185,149.585,246.185z"/>
	</g>
	<g>
		<circle fill="#FFFFFF" cx="373.423" cy="264.838" r="28.528"/>
		<path fill="#414154" d="M373.423,303.242c-21.175,0-38.404-17.228-38.404-38.404c0-21.175,17.229-38.404,38.404-38.404
			c21.176,0,38.404,17.229,38.404,38.404C411.827,286.014,394.599,303.242,373.423,303.242z M373.423,246.185
			c-10.286,0-18.653,8.369-18.653,18.653c0,10.285,8.367,18.653,18.653,18.653s18.653-8.369,18.653-18.653
			C392.077,254.554,383.709,246.185,373.423,246.185z"/>
	</g>
</g>
<g>
	<g>
		<g>
			<g>
				<path fill="#414154" d="M336,665h-11v-30.386c0-18.836-15.244-34.158-34-34.158s-34,15.322-34,34.158V662h-10v-27.386
					c0-24.885,19.694-45.131,44.5-45.131s44.5,20.246,44.5,45.131V665z"/>
			</g>
			<g>
				<path fill="#414154" d="M212,725.051c-24.806,0-45-20.245-45-45.13V559h12v120.921c0,18.835,15.244,34.158,34,34.158
					s34-15.323,34-34.158V656h10v23.921C257,704.806,236.806,725.051,212,725.051z"/>
			</g>
		</g>
		<g>
			<circle fill="#414154" cx="329.306" cy="681.337" r="33.981"/>
		</g>
		<g>
			<circle fill="#89E8BF" cx="329.306" cy="681.337" r="15.574"/>
		</g>
	</g>
	<g>
		<g>
			<path fill="#414154" d="M211.612,400.997C237.146,402.144,244,422.741,244,444.283c0,19.774,0,39.552,0,59.331
				c0,21.291-2.445,40.914-27.389,46.594c-14.122,3.219-31.566-0.207-45.882-0.207c-13.688,0-27.373,0-41.06,0
				C102.752,550,97,527.135,97,505.768c0-19.819,0-39.641,0-59.46c0-22.039,5.749-44.106,32.616-45.311
				c12.73-0.572,13.17-20.397,0.386-19.823C101.466,382.456,78,404.199,78,433.686c0,17.395,0,34.788,0,52.184
				c0,16.651-2.992,36.305,3.652,52.016C91.216,560.505,111.729,570,135.243,570c20.518,0,41.037,0,61.554,0
				c20.758,0,39.242-1.063,54.399-17.563C265.186,537.208,264,518.021,264,498.963c0-20.426,0-40.851,0-61.272
				c0-30.973-20.767-55.098-52.388-56.517C198.828,380.6,198.885,400.425,211.612,400.997L211.612,400.997z"/>
		</g>
	</g>
	<g>
		<circle fill="#414154" cx="207.542" cy="389.669" r="15.575"/>
	</g>
	<g>
		<circle fill="#414154" cx="136.749" cy="389.669" r="15.574"/>
	</g>
</g>
<g>
	<g>
		<path fill="#414154" d="M564,78v329.562c0,10.117,7.569,17.438,17.687,17.438h216.32c10.116,0,16.993-7.321,16.993-17.438V78H564z
			"/>
	</g>
	<g>
		<rect x="588" y="102" fill="#FEFEFE" width="202" height="293"/>
	</g>
	<g>
		<path fill="#56CEEF" d="M740,108.654c0,3.843-3.212,7.346-7.057,7.346h-84.832c-3.844,0-7.111-3.503-7.111-7.346V76.487
			c0-3.843,3.267-7.487,7.111-7.487h84.832c3.845,0,7.057,3.644,7.057,7.487V108.654z"/>
	</g>
	<g>
		<g>
			<path fill="#56CEEF" d="M689.513,94.799c-13.623,0-24.704-11.082-24.704-24.706c0-13.623,11.082-24.705,24.704-24.705
				c13.624,0,24.706,11.082,24.706,24.705C714.219,83.717,703.137,94.799,689.513,94.799z M689.513,54.167
				c-8.781,0-15.926,7.145-15.926,15.927c0,8.783,7.145,15.928,15.926,15.928c8.783,0,15.929-7.145,15.929-15.928
				C705.441,61.312,698.296,54.167,689.513,54.167z"/>
		</g>
	</g>
	<g>
		<g>
			<path fill="#F95050" d="M632.341,198.39c0,5.482-4.442,9.92-9.922,9.92c-5.48,0-9.921-4.438-9.921-9.92
				c0-5.48,4.441-9.922,9.921-9.922C627.899,188.468,632.341,192.91,632.341,198.39z"/>
		</g>
		<g>
			<path fill="#414154" d="M766,199.039c0,2.74-2.221,4.961-4.96,4.961H645.96c-2.739,0-4.96-2.221-4.96-4.961v-1.077
				c0-2.74,2.221-4.961,4.96-4.961h115.08c2.739,0,4.96,2.221,4.96,4.961V199.039z"/>
		</g>
	</g>
	<g>
		<g>
			<circle fill="#F95050" cx="622.42" cy="238.076" r="9.922"/>
		</g>
		<g>
			<path fill="#414154" d="M766,240.422c0,2.576-2.218,4.578-5.246,4.578H646.636c-3.029,0-5.636-2.002-5.636-4.578v-1.641
				c0-2.576,2.606-4.781,5.636-4.781h114.118c3.028,0,5.246,2.205,5.246,4.781V240.422z"/>
		</g>
	</g>
	<g>
		<g>
			<circle fill="#F95050" cx="622.42" cy="277.761" r="9.922"/>
		</g>
		<g>
			<path fill="#414154" d="M766,279.629c0,2.739-1.982,5.371-4.723,5.371H646.112c-2.74,0-5.112-2.632-5.112-5.371v-1.054
				c0-2.739,2.372-5.575,5.112-5.575h115.166c2.74,0,4.723,2.836,4.723,5.575V279.629z"/>
		</g>
	</g>
	<g>
		<polygon fill="#F95050" points="757,331 745,331 745,320 726,320 726,331 716,331 716,350 726,350 726,362 745,362 745,350 
			757,350 		"/>
	</g>
</g>
<g>
	<g>
		<g>
			<g>
				<path fill="#F95050" d="M1189,609v136.663c0,18.791,16.53,34.337,35.318,34.337h80.251c18.786,0,34.431-15.546,34.431-34.337
					V609H1189z"/>
			</g>
			<g>
				<path fill="#BCBCBC" d="M1339,578.091c0-18.788-15.645-35.091-34.431-35.091h-80.251c-18.788,0-35.318,16.303-35.318,35.091V609
					h150V578.091z"/>
			</g>
		</g>
		<g>
			<g>
				<path fill="none" d="M1312.639,747c-3.868,0-6.639-1.757-6.639-5.623v-0.825c0-3.868,2.771-5.552,6.639-5.552H1339v-14h-13.18
					c-3.871,0-5.82-2.117-5.82-5.986v-0.823c0-3.868,1.949-6.19,5.82-6.19H1339v-13h-26.361c-3.868,0-6.639-2.48-6.639-6.349v-0.823
					c0-3.868,2.771-5.828,6.639-5.828H1339v-12h-13.18c-3.871,0-5.82-2.194-5.82-6.063v-0.824c0-3.867,1.949-7.113,5.82-7.113H1339
					v-12h-26.361c-3.868,0-6.639-2.558-6.639-6.424v-0.825c0-3.868,2.771-7.751,6.639-7.751H1339v-11h-13.18
					c-3.871,0-5.82-2.92-5.82-6.787v-0.823c0-3.868,1.949-7.39,5.82-7.39H1339v-11h-26.361c-3.868,0-6.639-3.281-6.639-7.149v-0.823
					c0-3.868,2.771-8.027,6.639-8.027h25.894c-0.567-17-15.536-33-33.963-33h-80.251c-18.788,0-35.318,16.303-35.318,35.091v31.887
					v135.686c0,18.791,16.53,34.337,35.318,34.337h80.251c17.869,0,32.495-14,33.883-33H1312.639z"/>
			</g>
			<g>
				<path fill="#414154" d="M1306,584.027v0.823c0,3.868,2.771,7.149,6.639,7.149H1339v-13.909c0-0.36-0.454-2.091-0.468-2.091
					h-25.894C1308.771,576,1306,580.159,1306,584.027z"/>
			</g>
			<g>
				<path fill="#414154" d="M1320,610.39v0.823c0,3.867,1.949,6.787,5.82,6.787H1339v-8.022V603h-13.18
					C1321.949,603,1320,606.521,1320,610.39z"/>
			</g>
			<g>
				<path fill="#414154" d="M1306,636.751v0.825c0,3.866,2.771,6.424,6.639,6.424H1339v-15h-26.361
					C1308.771,629,1306,632.883,1306,636.751z"/>
			</g>
			<g>
				<path fill="#414154" d="M1320,663.113v0.824c0,3.868,1.949,6.063,5.82,6.063H1339v-14h-13.18
					C1321.949,656,1320,659.246,1320,663.113z"/>
			</g>
			<g>
				<path fill="#414154" d="M1306,687.828v0.823c0,3.868,2.771,6.349,6.639,6.349H1339v-13h-26.361
					C1308.771,682,1306,683.96,1306,687.828z"/>
			</g>
			<g>
				<path fill="#414154" d="M1320,714.19v0.823c0,3.869,1.949,5.986,5.82,5.986H1339v-13h-13.18
					C1321.949,708,1320,710.322,1320,714.19z"/>
			</g>
			<g>
				<path fill="#414154" d="M1306,740.552v0.825c0,3.866,2.771,5.623,6.639,5.623h25.813c0.07,0,0.548-0.42,0.548-1.337V735h-26.361
					C1308.771,735,1306,736.684,1306,740.552z"/>
			</g>
		</g>
		<g>
			<g>
				<path fill="#BCBCBC" d="M1277.994,572.493c-1.035,17.957-25.994,15.784-25.994-1.71c0-9.042,0-18.081,0-27.123
					c0-17.883,26-15.84,26,1.711c0,9.041,0,18.629,0,26.629c0,9,11.159,9,11.159,0c0-13,2.921-29.682-3.674-41.436
					c-4.794-8.537-15.753-12.642-25.148-11.001c-12.164,2.124-19.909,11.955-20.607,24.035c-0.38,6.586,0,13.334,0,19.926
					c0,7.75-0.274,14.765,3.673,21.802c4.792,8.539,15.754,12.771,25.146,11.132c12.167-2.125,20.098-11.887,20.794-23.967
					C1289.771,565.057,1278.42,565.103,1277.994,572.493z"/>
			</g>
		</g>
	</g>
	<g>
		<polygon fill="#F95050" points="1279.684,796 1248.379,796 1236.848,766 1291.218,766 		"/>
	</g>
	<g>
		<g>
			<path fill="#F95050" d="M1260,646c0,0,0,156.714,0,235.068c0,2.467-0.358,4.703-0.433,7.172
				c-0.489,15.666-15.483,27.76-30.617,27.76c-16.527,0-33.058,0-49.587,0c-10.186,0-18.918-1.289-26.717-8.644
				c-7.721-7.281-8.646-16.867-8.646-26.792c0-16.127,0-32.564,0-46.564c0-9-14-9-14,0c0,17,0,34.182,0,52.18
				c0,17.052,12.041,33.434,28.257,39.162c9.762,3.445,20.65,2.629,30.834,2.629c23.51,0,52.96,5.107,70.778-13.788
				c11.844-12.561,11.131-28.685,11.131-44.446c0-74.579,0-148.736,0-223.736C1271,637,1260,637,1260,646
				C1260,646,1260,637,1260,646z"/>
		</g>
	</g>
</g>
<g>
	<g>
		<rect x="505" y="820" fill="#BCBCBC" width="75" height="46"/>
	</g>
	<g>
		<path fill="#BCBCBC" d="M599,879.956c0,8.448-5.668,15.361-13,15.361s-13-6.913-13-15.361v-73.882c0-8.448,5.668-15.362,13-15.362
			s13,6.914,13,15.362V879.956z"/>
	</g>
	<g>
		<path fill="#F95050" d="M297,851.721c0,3.109-2.903,5.279-6.011,5.279h-91.886c-3.108,0-6.103-2.17-6.103-5.279v-17.269
			c0-3.109,2.994-5.452,6.103-5.452h91.886c3.108,0,6.011,2.343,6.011,5.452V851.721z"/>
	</g>
	<g>
		<path fill="#F95050" d="M514,868.642c0,7.93-6.428,14.358-14.357,14.358H249.357c-7.929,0-14.357-6.429-14.357-14.358v-56.283
			c0-7.93,6.428-14.358,14.357-14.358h250.285c7.929,0,14.357,6.429,14.357,14.358V868.642z"/>
	</g>
	<g>
		<polygon fill="#BCBCBC" points="90.664,851 193,851 193,836 64,836 		"/>
	</g>
	<g>
		<polygon fill="#BCBCBC" points="517,900.282 475,903.521 475,780.458 517,783.695 		"/>
	</g>
	<g>
		<g>
			<path fill="none" d="M498.828,798H457v16.813c0,3.682-4.229,7.187-7.911,7.187h-1.025c-3.682,0-6.064-3.505-6.064-7.187V798h-21
				v16.813c0,3.682-3.098,7.187-6.779,7.187h-1.025c-3.681,0-6.195-3.505-6.195-7.187V798h-21v37.325
				c0,3.679-2.966,6.675-6.647,6.675h-1.025c-3.682,0-7.328-2.996-7.328-6.675V798h-20v16.813c0,3.682-2.833,7.187-6.515,7.187
				h-1.026c-3.682,0-7.459-3.505-7.459-7.187V798h-20v16.813c0,3.682-2.702,7.187-6.384,7.187h-1.025
				c-3.682,0-7.591-3.505-7.591-7.187V798h-19v37.325c0,3.679-3.571,6.675-7.252,6.675h-1.025c-3.682,0-5.723-2.996-5.723-6.675V798
				h-19.404c-7.929,0-13.596,7.346-13.596,15.274v57.43c0,7.93,5.667,15.296,13.596,15.296h250.231
				c7.931,0,15.172-7.366,15.172-15.296v-57.43C514,805.346,506.758,798,498.828,798z"/>
		</g>
		<g>
			<path fill="#414154" d="M273.723,842h1.025c3.681,0,7.252-2.996,7.252-6.675V798h-14v37.325C268,839.004,270.041,842,273.723,842
				z"/>
		</g>
		<g>
			<path fill="#414154" d="M308.591,822h1.025c3.682,0,6.384-3.505,6.384-7.187V798h-15v16.813C301,818.495,304.909,822,308.591,822
				z"/>
		</g>
		<g>
			<path fill="#414154" d="M343.459,822h1.026c3.682,0,6.515-3.505,6.515-7.187V798h-15v16.813C336,818.495,339.777,822,343.459,822
				z"/>
		</g>
		<g>
			<path fill="#414154" d="M378.328,842h1.025c3.681,0,6.647-2.996,6.647-6.675V798h-15v37.325C371,839.004,374.646,842,378.328,842
				z"/>
		</g>
		<g>
			<path fill="#414154" d="M413.195,822h1.025c3.682,0,6.779-3.505,6.779-7.187V798h-14v16.813C407,818.495,409.515,822,413.195,822
				z"/>
		</g>
		<g>
			<path fill="#414154" d="M448.064,822h1.025c3.682,0,7.911-3.505,7.911-7.187V798h-15v16.813C442,818.495,444.382,822,448.064,822
				z"/>
		</g>
	</g>
</g>
<g>
	<g>
		<g>
			<path fill="#414154" d="M1025,362.324c0,7.972-6.273,14.676-14.244,14.676h-25.998c-7.972,0-14.758-6.704-14.758-14.676v-19.412
				c0-7.973,6.786-13.912,14.758-13.912h25.998c7.971,0,14.244,5.939,14.244,13.912V362.324z"/>
		</g>
		<g>
			<path fill="#414154" d="M1257,362.324c0,7.972-5.658,14.676-13.627,14.676h-26c-7.971,0-14.373-6.704-14.373-14.676v-19.412
				c0-7.973,6.402-13.912,14.373-13.912h26c7.969,0,13.627,5.939,13.627,13.912V362.324z"/>
		</g>
	</g>
	<g>
		<path fill="#414154" d="M1143.1,160h-61.139c-11.369,0-19.961-9.726-19.961-21.099V96.044c0-11.374,8.592-20.044,19.961-20.044
			h61.139c11.37,0,19.9,8.671,19.9,20.044v42.856C1163,150.274,1154.47,160,1143.1,160z M1146,96.316
			c0-1.279-0.99-2.316-2.213-2.316h-61.574c-1.223,0-2.213,1.037-2.213,2.316v44.368c0,1.279,0.99,2.316,2.213,2.316h61.574
			c1.223,0,2.213-1.037,2.213-2.316V96.316z"/>
	</g>
	<g>
		<path fill="#F95050" d="M1281.942,167.185c0-30.29-24.554-54.185-54.845-54.185h-226.699c-30.291,0-54.847,23.895-54.847,54.185
			L938.238,353h351.02L1281.942,167.185z"/>
	</g>
	<g>
		<path fill="#F43D3D" d="M945.552,166.678L938.238,353h351.02l-7.315-186.4"/>
	</g>
	<g>
		<g>
			<polygon fill="#FFFFFF" points="1175,226 1142,226 1142,193 1087,193 1087,226 1054,226 1054,280 1087,280 1087,313 1142,313 
				1142,280 1175,280 			"/>
		</g>
	</g>
</g>
<g>
	<path fill="#EDEDED" d="M896.752,496.485c-37.351,30.184-45.607,82.988-21.05,122.814l145.546-117.615
		C987.467,469.312,934.104,466.303,896.752,496.485z"/>
	<path fill="#EDEDED" d="M1015.368,643.268c37.938-30.658,45.887-84.666,19.89-124.691L889.28,636.543
		C922.957,670.36,977.432,673.926,1015.368,643.268z"/>
	<path fill="#FFFFFF" d="M1029.451,510.569c-2.571-3.18-5.324-6.129-8.203-8.885L875.702,619.3c2.094,3.393,4.396,6.703,6.968,9.884
		c2.097,2.598,4.305,5.045,6.61,7.359l145.978-117.967C1033.48,515.837,1031.548,513.165,1029.451,510.569z"/>
</g>
<g>
	<path fill="#F43D3D" d="M432.04,533.39c-21.332,12.62-28.337,40.235-15.717,61.569c12.62,21.332,40.197,28.487,61.529,15.867
		L528,581.16l-45.814-77.438L432.04,533.39z"/>
	<path fill="#EDEDED" d="M532.331,474.056l-50.145,29.667L528,581.16l50.144-29.667c21.332-12.618,28.34-40.233,15.719-61.567
		C581.242,468.591,553.663,461.438,532.331,474.056z"/>
</g>
<g>
	<path fill="#F43D3D" d="M573.358,588.373c-23.97,6.308-38.259,30.957-31.952,54.929c6.307,23.969,30.877,38.392,54.846,32.084
		l56.349-14.825l-22.898-87.013L573.358,588.373z"/>
	<path fill="#FFF173" d="M686.048,558.721l-56.345,14.827l22.898,87.013l56.343-14.826c23.969-6.308,38.26-30.954,31.953-54.927
		C734.591,566.838,710.018,552.415,686.048,558.721z"/>
</g>
</svg>
