<?xml version="1.0" encoding="UTF-8" standalone="no"?>
<!-- Created with Inkscape (http://www.inkscape.org/) -->

<svg
   xmlns:dc="http://purl.org/dc/elements/1.1/"
   xmlns:cc="http://creativecommons.org/ns#"
   xmlns:rdf="http://www.w3.org/1999/02/22-rdf-syntax-ns#"
   xmlns:svg="http://www.w3.org/2000/svg"
   xmlns="http://www.w3.org/2000/svg"
   xmlns:sodipodi="http://sodipodi.sourceforge.net/DTD/sodipodi-0.dtd"
   xmlns:inkscape="http://www.inkscape.org/namespaces/inkscape"
   width="210mm"
   height="297mm"
   viewBox="0 0 744.09448819 1052.3622047"
   id="svg4123"
   version="1.1"
   inkscape:version="0.91 r13725"
   sodipodi:docname="injection.svg">
  <defs
     id="defs4125">
    <linearGradient
       x1="0"
       y1="0"
       x2="1"
       y2="0"
       gradientUnits="userSpaceOnUse"
       gradientTransform="matrix(-349.61429,-51.188522,-51.188522,349.61429,686.24268,193.38867)"
       spreadMethod="pad"
       id="linearGradient322">
      <stop
         style="stop-opacity:1;stop-color:#26a9e0"
         offset="0"
         id="stop324" />
      <stop
         style="stop-opacity:1;stop-color:#262261"
         offset="1"
         id="stop326" />
    </linearGradient>
    <linearGradient
       x1="0"
       y1="0"
       x2="1"
       y2="0"
       gradientUnits="userSpaceOnUse"
       gradientTransform="matrix(-349.61847,-51.189133,-51.189133,349.61847,695.16162,132.49902)"
       spreadMethod="pad"
       id="linearGradient302">
      <stop
         style="stop-opacity:1;stop-color:#26a9e0"
         offset="0"
         id="stop304" />
      <stop
         style="stop-opacity:1;stop-color:#262261"
         offset="1"
         id="stop306" />
    </linearGradient>
    <linearGradient
       x1="0"
       y1="0"
       x2="1"
       y2="0"
       gradientUnits="userSpaceOnUse"
       gradientTransform="matrix(-130.89922,-185.84454,-185.84454,130.89922,669.67285,333.4375)"
       spreadMethod="pad"
       id="linearGradient280">
      <stop
         style="stop-opacity:1;stop-color:#5a4a42"
         offset="0"
         id="stop282" />
      <stop
         style="stop-opacity:1;stop-color:#0d0008"
         offset="0.993942"
         id="stop284" />
      <stop
         style="stop-opacity:1;stop-color:#0d0008"
         offset="1"
         id="stop286" />
    </linearGradient>
  </defs>
  <sodipodi:namedview
     id="base"
     pagecolor="#ffffff"
     bordercolor="#666666"
     borderopacity="1.0"
     inkscape:pageopacity="0.0"
     inkscape:pageshadow="2"
     inkscape:zoom="0.35"
     inkscape:cx="260.71429"
     inkscape:cy="520"
     inkscape:document-units="px"
     inkscape:current-layer="layer1"
     showgrid="false"
     inkscape:window-width="1855"
     inkscape:window-height="1056"
     inkscape:window-x="65"
     inkscape:window-y="24"
     inkscape:window-maximized="1" />
  <metadata
     id="metadata4128">
    <rdf:RDF>
      <cc:Work
         rdf:about="">
        <dc:format>image/svg+xml</dc:format>
        <dc:type
           rdf:resource="http://purl.org/dc/dcmitype/StillImage" />
        <dc:title></dc:title>
      </cc:Work>
    </rdf:RDF>
  </metadata>
  <g
     inkscape:label="Layer 1"
     inkscape:groupmode="layer"
     id="layer1">
    <g
       transform="matrix(1.25,0,0,-1.25,-280.24327,764.71379)"
       id="g268">
      <g
         id="g270">
        <g
           id="g276">
          <g
             id="g278">
            <path
               d="m 614.485,263.167 c -6.267,2.364 -13.563,1.068 -18.665,-3.784 l 0,0 25.927,-24.641 c 4.588,5.342 5.512,12.693 2.829,18.835 l 0,0 24.419,25.695 -0.83,19.332 -33.68,-35.437 z"
               style="fill:url(#linearGradient280);stroke:none"
               id="path288"
               inkscape:connector-curvature="0" />
          </g>
        </g>
      </g>
    </g>
    <g
       transform="matrix(1.25,0,0,-1.25,-280.24327,764.71379)"
       id="g290">
      <g
         id="g292">
        <g
           id="g298">
          <g
             id="g300">
            <path
               d="m 428.41,135.617 c -3.776,-3.973 -3.614,-10.251 0.356,-14.026 l 0,0 62.521,-59.416 c 3.972,-3.777 10.249,-3.615 14.025,0.356 l 0,0 c 3.77,3.971 3.614,10.249 -0.36,14.024 l 0,0 -8.975,8.529 10.188,10.72 -10.228,9.721 -10.186,-10.719 -24.115,22.914 10.189,10.719 -10.229,9.721 -10.187,-10.718 -8.977,8.529 c -1.919,1.825 -4.379,2.73 -6.833,2.731 l 0,0 c -2.623,0 -5.241,-1.034 -7.189,-3.085"
               style="fill:url(#linearGradient302);stroke:none"
               id="path308"
               inkscape:connector-curvature="0" />
          </g>
        </g>
      </g>
    </g>
    <g
       transform="matrix(1.25,0,0,-1.25,-280.24327,764.71379)"
       id="g310">
      <g
         id="g312">
        <g
           id="g318">
          <g
             id="g320">
            <path
               d="m 562.922,257.215 -84.741,-89.166 -8.038,7.636 c -4.639,4.41 -11.975,4.223 -16.387,-0.415 l 0,0 c -4.408,-4.641 -4.224,-11.978 0.418,-16.389 l 0,0 73.062,-69.435 c 4.639,-4.41 11.978,-4.225 16.388,0.415 l 0,0 c 4.411,4.642 4.221,11.979 -0.417,16.387 l 0,0 -8.035,7.639 84.739,89.167 c 5.753,6.054 5.508,15.623 -0.543,21.375 l 0,0 -35.069,33.333 c -2.926,2.779 -6.674,4.158 -10.414,4.158 l 0,0 c -4,0 -7.991,-1.576 -10.963,-4.705 m -10.209,-63.706 c 1.63,1.714 1.564,4.424 -0.152,6.055 l 0,0 -13.478,12.811 12.873,13.547 c 1.917,2.018 5.109,2.099 7.128,0.181 l 0,0 29.954,-28.468 c 2.017,-1.918 2.097,-5.109 0.18,-7.127 l 0,0 -63.911,-67.248 -37.264,35.414 14.265,15.01 13.48,-12.813 c 1.715,-1.629 4.429,-1.559 6.055,0.155 l 0,0 c 1.63,1.716 1.562,4.426 -0.151,6.056 l 0,0 -13.481,12.812 9.532,10.029 13.481,-12.811 c 1.717,-1.63 4.427,-1.558 6.056,0.155 l 0,0 c 1.631,1.714 1.56,4.425 -0.152,6.055 l 0,0 -13.481,12.811 9.528,10.032 13.484,-12.812 c 0.829,-0.787 1.89,-1.177 2.949,-1.177 l 0,0 c 1.133,0 2.263,0.446 3.105,1.333"
               style="fill:url(#linearGradient322);stroke:none"
               id="path328"
               inkscape:connector-curvature="0" />
          </g>
        </g>
      </g>
    </g>
  </g>
</svg>
